<svg width="41" height="41" viewBox="0 0 41 41" fill="none" xmlns="http://www.w3.org/2000/svg">
<path fill-rule="evenodd" clip-rule="evenodd" d="M24.7946 22.2232V15.875C24.7946 15.7232 24.6607 15.5893 24.5 15.5982H23.4821C23.3214 15.5982 23.1964 15.7232 23.1964 15.8839V19.6518L20.2857 15.7232C20.2411 15.6428 20.1428 15.5982 20.0536 15.5982H19.0446C18.8839 15.5982 18.7589 15.7232 18.7589 15.8839V22.2321C18.7589 22.3928 18.8839 22.5178 19.0446 22.5178H20.0625C20.2232 22.5178 20.3482 22.3928 20.3482 22.2321V18.4643L23.2589 22.3928C23.3035 22.4553 23.3928 22.5089 23.491 22.5089H24.5089C24.6696 22.5089 24.7946 22.3839 24.7946 22.2232ZM16.4553 15.5893H17.4732C17.6339 15.5893 17.7589 15.7232 17.7589 15.875V22.2232C17.7589 22.3839 17.6339 22.5089 17.4732 22.5089H16.4553C16.2946 22.5089 16.1696 22.3839 16.1696 22.2232V15.875C16.1696 15.7143 16.2946 15.5893 16.4553 15.5893ZM12.2411 20.9107H15.0178C15.1696 20.9107 15.2946 21.0446 15.2946 21.1964V22.2143C15.2946 22.375 15.1696 22.5 15.0089 22.5H10.9286C10.8482 22.5 10.7857 22.4643 10.7321 22.4196C10.6786 22.3661 10.6518 22.3035 10.6518 22.2232V15.875C10.6518 15.7143 10.7768 15.5893 10.9375 15.5893H11.9553C12.1161 15.5893 12.2411 15.7143 12.2411 15.875V20.9107ZM26.0714 15.5893H30.1518C30.3035 15.5893 30.4285 15.7232 30.4375 15.875V16.8928C30.4375 17.0536 30.3125 17.1786 30.1518 17.1786H27.375V18.25H30.1518C30.3125 18.25 30.4375 18.375 30.4375 18.5357V19.5625C30.4375 19.7232 30.3125 19.8482 30.1518 19.8482H27.375V20.9196H30.1518C30.3125 20.9196 30.4375 21.0446 30.4375 21.2053V22.2232C30.4375 22.3839 30.3125 22.5089 30.1518 22.5089H26.0714C25.9107 22.5089 25.7857 22.375 25.7857 22.2232V15.875C25.7857 15.7143 25.9196 15.5893 26.0714 15.5893ZM20.5274 0.5C31.5512 0.514795 40.4849 9.44834 40.5 20.4721V20.5279C40.4849 31.5515 31.5515 40.4849 20.5279 40.5H20.4721C9.44834 40.4849 0.514795 31.5512 0.5 20.5274V20.4726C0.514795 9.44861 9.44861 0.514795 20.4726 0.5H20.5274ZM20.4375 6.91964C28.4643 6.91964 35 12.2232 35 18.7411C35 21.3482 33.991 23.6964 31.8839 26.0178C28.8214 29.5357 21.9911 33.8214 20.4375 34.4732C18.9311 35.1052 19.1036 34.117 19.1724 33.7227C19.1746 33.7104 19.1767 33.6986 19.1786 33.6875C19.1973 33.5756 19.2155 33.4677 19.2332 33.3636C19.5771 31.3325 19.6758 30.75 18.0536 30.4018C11.0536 29.4732 5.87499 24.5803 5.87499 18.7411C5.87499 12.2232 12.4107 6.91964 20.4375 6.91964Z" fill="white"/>
</svg>
