<svg width="50" height="50" viewBox="0 0 50 50" fill="none" xmlns="http://www.w3.org/2000/svg">
<path d="M37.5 37.5C38.3288 37.5 39.1236 37.1708 39.7097 36.5847C40.2957 35.9987 40.625 35.2038 40.625 34.375V26.7437C40.625 25.9149 40.2957 25.1201 39.7097 24.534C39.1236 23.948 38.3288 23.6188 37.5 23.6188H33.1625C33.1625 22.5208 33.227 21.4229 33.3562 20.325C33.55 19.1625 33.8729 18.1292 34.325 17.225C34.777 16.3208 35.3593 15.6094 36.0718 15.0906C36.7802 14.5094 37.6843 14.2188 38.7843 14.2188V9.375C36.976 9.375 35.3927 9.7625 34.0343 10.5375C32.6854 11.3027 31.5264 12.3624 30.6437 13.6375C29.755 15.0411 29.1006 16.58 28.7062 18.1938C28.3074 19.9742 28.1124 21.7942 28.125 23.6188V34.375C28.125 35.2038 28.4542 35.9987 29.0403 36.5847C29.6263 37.1708 30.4212 37.5 31.25 37.5H37.5ZM18.75 37.5C19.5788 37.5 20.3736 37.1708 20.9597 36.5847C21.5457 35.9987 21.875 35.2038 21.875 34.375V26.7437C21.875 25.9149 21.5457 25.1201 20.9597 24.534C20.3736 23.948 19.5788 23.6188 18.75 23.6188H14.4125C14.4125 22.5208 14.477 21.4229 14.6062 20.325C14.802 19.1625 15.125 18.1292 15.575 17.225C16.027 16.3208 16.6093 15.6094 17.3218 15.0906C18.0302 14.5094 18.9343 14.2188 20.0343 14.2188V9.375C18.226 9.375 16.6427 9.7625 15.2843 10.5375C13.9354 11.3027 12.7764 12.3624 11.8937 13.6375C11.005 15.0411 10.3506 16.58 9.95621 18.1938C9.55741 19.9742 9.3624 21.7942 9.37496 23.6188V34.375C9.37496 35.2038 9.7042 35.9987 10.2903 36.5847C10.8763 37.1708 11.6712 37.5 12.5 37.5H18.75Z" fill="#333333"/>
</svg>
