<svg width="60" height="60" viewBox="0 0 60 60" fill="none" xmlns="http://www.w3.org/2000/svg">
<path fill-rule="evenodd" clip-rule="evenodd" d="M30.0404 59.9999C46.5769 59.9781 59.9781 46.5769 59.9999 30.0404V29.9595C59.9781 13.4233 46.5773 0.0221931 30.0411 0H29.9588C13.4229 0.0221928 0.0221928 13.4229 0 29.9588V30.0411C0.0221931 46.5773 13.4233 59.9781 29.9595 59.9999H30.0404ZM36.4419 32.5848V23.0625C36.4419 22.8348 36.241 22.6339 36 22.6473H34.4732C34.2321 22.6473 34.0446 22.8348 34.0446 23.0759V28.7277L29.6785 22.8348C29.6116 22.7143 29.4643 22.6473 29.3303 22.6473H27.8169C27.5759 22.6473 27.3884 22.8348 27.3884 23.0759V32.5982C27.3884 32.8393 27.5759 33.0268 27.8169 33.0268H29.3437C29.5848 33.0268 29.7723 32.8393 29.7723 32.5982V26.9464L34.1384 32.8393C34.2053 32.933 34.3393 33.0134 34.4866 33.0134H36.0134C36.2544 33.0134 36.4419 32.8259 36.4419 32.5848ZM23.933 22.6339H25.4598C25.7009 22.6339 25.8884 22.8348 25.8884 23.0625V32.5848C25.8884 32.8259 25.7009 33.0134 25.4598 33.0134H23.933C23.6919 33.0134 23.5044 32.8259 23.5044 32.5848V23.0625C23.5044 22.8214 23.6919 22.6339 23.933 22.6339ZM17.6116 30.616H21.7768C22.0044 30.616 22.1919 30.8169 22.1919 31.0446V32.5714C22.1919 32.8125 22.0044 33 21.7634 33H15.6428C15.5223 33 15.4286 32.9464 15.3482 32.8794C15.2678 32.7991 15.2277 32.7053 15.2277 32.5848V23.0625C15.2277 22.8214 15.4152 22.6339 15.6562 22.6339H17.183C17.4241 22.6339 17.6116 22.8214 17.6116 23.0625V30.616ZM38.3571 22.6339H44.4776C44.7053 22.6339 44.8928 22.8348 44.9062 23.0625V24.5893C44.9062 24.8303 44.7187 25.0178 44.4776 25.0178H40.3125V26.625H44.4776C44.7187 26.625 44.9062 26.8125 44.9062 27.0535V28.5937C44.9062 28.8348 44.7187 29.0223 44.4776 29.0223H40.3125V30.6294H44.4776C44.7187 30.6294 44.9062 30.8169 44.9062 31.058V32.5848C44.9062 32.8259 44.7187 33.0134 44.4776 33.0134H38.3571C38.116 33.0134 37.9285 32.8125 37.9285 32.5848V23.0625C37.9285 22.8214 38.1294 22.6339 38.3571 22.6339ZM29.9062 9.62946C41.9464 9.62946 51.75 17.5848 51.75 27.3616C51.75 31.2723 50.2366 34.7946 47.0759 38.2768C42.4821 43.5535 32.2366 49.9821 29.9062 50.9598C27.6466 51.9078 27.9054 50.4255 28.0087 49.834C28.0119 49.8155 28.015 49.7979 28.0178 49.7812C28.0459 49.6134 28.0733 49.4515 28.0998 49.2953C28.6157 46.2487 28.7636 45.375 26.3303 44.8526C15.8303 43.4598 8.06249 36.1205 8.06249 27.3616C8.06249 17.5848 17.8661 9.62946 29.9062 9.62946Z" fill="#333333"/>
</svg>
